<svg width="182" height="91" viewBox="0 0 182 91" fill="none" xmlns="http://www.w3.org/2000/svg">
<path d="M181 20.6497L91.2522 4.49756L1 20.6497V90.9999H181V20.6497Z" fill="#2A2925"/>
<path d="M181 81.9531H1" stroke="white" stroke-width="0.599"/>
<path d="M181 30.3218H1" stroke="white" stroke-width="0.599"/>
<path d="M181 28.106H1" stroke="white" stroke-width="0.599"/>
<path d="M31.2773 91V81.8296" stroke="white" stroke-width="0.599"/>
<path d="M64.8633 91V81.8296" stroke="white" stroke-width="0.599"/>
<path d="M94.6797 91V81.8296" stroke="white" stroke-width="0.599"/>
<path d="M123.031 91V81.8296" stroke="white" stroke-width="0.599"/>
<path d="M152.148 91V81.8296" stroke="white" stroke-width="0.599"/>
<path d="M36.7791 51.8961V51.4495C36.6864 51.2571 36.4427 50.6695 36.048 49.6834C35.5881 48.5186 35.2449 47.725 35.0252 47.3058C34.8056 46.8832 34.5344 46.5774 34.2153 46.3815C33.8961 46.1891 33.4327 46.0895 32.8321 46.0895H32.633V49.6456C32.633 50.2366 32.6948 50.6352 32.8184 50.8413C32.9419 51.0475 33.2405 51.2021 33.7142 51.3017V51.8927H28.4526V51.3017C28.9126 51.2021 29.2077 51.0509 29.3347 50.8482C29.4617 50.6489 29.5235 50.2469 29.5235 49.6422V41.9217C29.5235 41.3067 29.4617 40.9047 29.3416 40.7123C29.2214 40.5199 28.9229 40.3687 28.4492 40.2553V39.6643H33.7107V40.2553C33.2439 40.3687 32.9453 40.5233 32.8184 40.7226C32.6914 40.9184 32.6296 41.3204 32.6296 41.9217V45.1102H32.839C33.6455 45.1102 34.2633 44.9006 34.6889 44.478C35.1145 44.0554 35.468 43.4644 35.7563 42.7017C36.1029 41.7637 36.4221 41.1005 36.7139 40.7123C37.0056 40.324 37.3694 40.0285 37.8122 39.8258C38.2515 39.6231 38.8281 39.52 39.5351 39.52C40.0843 39.52 40.5648 39.5887 40.9766 39.7262V41.9389H39.5626C39.4905 41.396 39.2228 41.1246 38.7594 41.1246C38.4128 41.1246 38.1176 41.2895 37.8739 41.6159C37.6303 41.9458 37.3728 42.4131 37.1086 43.0212C36.6795 44.0314 36.0858 44.722 35.3238 45.0999V45.1893C36.0171 45.2614 36.5766 45.4195 36.9919 45.6668C37.4106 45.9142 37.7298 46.2097 37.9529 46.5499C38.176 46.89 38.5226 47.5635 38.9894 48.5668C39.5454 49.7659 39.9264 50.508 40.1357 50.7898C40.3451 51.0715 40.6883 51.2399 41.162 51.3017V51.8927H36.7791V51.8961Z" fill="white"/>
<path d="M49.6104 48.1064H45.3305L45.001 48.9585C44.9084 49.199 44.8294 49.4292 44.7711 49.6525C44.7093 49.8758 44.6818 50.1129 44.6818 50.3637C44.6818 50.9479 45.0285 51.264 45.7252 51.3052V51.8962H41.4453V51.3052C41.6924 51.2811 41.9087 51.2055 42.0974 51.0715C42.2828 50.941 42.4544 50.7623 42.6088 50.5355C42.7633 50.3088 42.9246 49.9824 43.0996 49.5597L47.28 39.6094H49.9571L53.2657 49.6422C53.4133 50.0889 53.5368 50.4084 53.6364 50.5974C53.7359 50.7864 53.8663 50.9375 54.0276 51.0544C54.1889 51.1712 54.412 51.2571 54.7003 51.3086V51.8996H49.1574V51.3086C49.504 51.2743 49.7614 51.1849 49.9296 51.0475C50.0978 50.9101 50.1802 50.7176 50.1802 50.4668C50.1802 50.2813 50.1561 50.0751 50.1115 49.8484C50.0635 49.6216 49.988 49.333 49.8816 48.9894L49.6104 48.1064ZM45.7115 47.0584H49.3187L47.7159 42.0145L45.7115 47.0584Z" fill="white"/>
<path d="M60.2468 49.6561C60.2468 50.0513 60.2639 50.3296 60.2983 50.4945C60.3326 50.6594 60.3875 50.79 60.463 50.8896C60.5385 50.9893 60.6483 51.0717 60.7925 51.137C60.9366 51.2023 61.1597 51.2607 61.4583 51.3088V51.8998H56.0664V51.3088C56.3135 51.2504 56.5092 51.1851 56.6533 51.1164C56.7975 51.0477 56.9038 50.9515 56.9725 50.8312C57.0411 50.7075 57.0892 50.5529 57.1064 50.3639C57.1269 50.1749 57.1372 49.9379 57.1372 49.6527V41.9322C57.1372 41.6505 57.1304 41.4168 57.1132 41.2244C57.0961 41.032 57.0549 40.8774 56.9828 40.7571C56.9107 40.6369 56.8043 40.5407 56.6636 40.4651C56.5194 40.3895 56.3204 40.3242 56.0664 40.2624V39.6714H61.8874C63.576 39.6714 64.8425 39.9428 65.6868 40.4823C66.5276 41.0217 66.9498 41.8532 66.9498 42.9767C66.9498 43.7704 66.7542 44.461 66.3595 45.0451C65.9648 45.6292 65.395 46.0725 64.6468 46.3748C63.8986 46.6772 62.9616 46.8284 61.8393 46.8284C61.1906 46.8284 60.6586 46.8146 60.2468 46.794V49.6561ZM60.2468 45.7804H61.1083C61.7775 45.7804 62.3061 45.6945 62.7008 45.5262C63.0955 45.3544 63.3872 45.0864 63.576 44.7153C63.7682 44.3442 63.8609 43.846 63.8609 43.2207C63.8609 42.5988 63.7647 42.104 63.576 41.7398C63.3872 41.3722 63.1058 41.111 62.7385 40.9564C62.3713 40.8018 61.9011 40.7228 61.3245 40.7228C60.8577 40.7228 60.4973 40.7296 60.2433 40.7399V45.7804H60.2468Z" fill="white"/>
<path d="M77.1966 51.8961V51.4495C77.1039 51.2571 76.8602 50.6695 76.4655 49.6834C76.0056 48.5186 75.6624 47.725 75.4427 47.3058C75.2231 46.8832 74.9519 46.5774 74.6293 46.3815C74.3101 46.1891 73.8468 46.0895 73.2462 46.0895H73.0471V49.6456C73.0471 50.2366 73.1089 50.6352 73.2324 50.8413C73.356 51.0475 73.6546 51.2021 74.1282 51.3017V51.8927H68.8667V51.3017C69.3266 51.2021 69.6218 51.0509 69.7488 50.8482C69.8758 50.6489 69.9376 50.2469 69.9376 49.6422V41.9217C69.9376 41.3067 69.8758 40.9047 69.7556 40.7123C69.6355 40.5199 69.3369 40.3687 68.8633 40.2553V39.6643H74.1248V40.2553C73.658 40.3687 73.3594 40.5233 73.2324 40.7226C73.1054 40.9184 73.0437 41.3204 73.0437 41.9217V45.1102H73.253C74.0596 45.1102 74.6774 44.9006 75.103 44.478C75.5285 44.0554 75.8821 43.4644 76.1704 42.7017C76.517 41.7637 76.8362 41.1005 77.1279 40.7123C77.4197 40.324 77.7835 40.0285 78.2262 39.8258C78.669 39.6231 79.2421 39.52 79.9492 39.52C80.4983 39.52 80.9788 39.5887 81.3941 39.7262V41.9389H79.9801C79.908 41.396 79.6403 41.1246 79.1769 41.1246C78.8303 41.1246 78.5351 41.2895 78.2914 41.6159C78.0478 41.9458 77.7903 42.4131 77.5261 43.0212C77.097 44.0314 76.5033 44.722 75.7413 45.0999V45.1893C76.4346 45.2614 76.9906 45.4195 77.4094 45.6668C77.8247 45.9142 78.1473 46.2097 78.3704 46.5499C78.5935 46.89 78.9401 47.5635 79.4069 48.5668C79.9629 49.7659 80.3439 50.508 80.5532 50.7898C80.7626 51.0715 81.1058 51.2399 81.5795 51.3017V51.8927H77.1966V51.8961Z" fill="white"/>
<path d="M90.0284 48.1064H85.7485L85.419 48.9585C85.3263 49.199 85.2474 49.4292 85.189 49.6525C85.1307 49.8758 85.0998 50.1129 85.0998 50.3637C85.0998 50.9479 85.4465 51.264 86.1432 51.3052V51.8962H81.8633V51.3052C82.1104 51.2811 82.3266 51.2055 82.5154 51.0715C82.7007 50.941 82.8723 50.7623 83.0268 50.5355C83.1812 50.3088 83.3425 49.9824 83.5176 49.5597L87.698 39.6094H90.375L93.6802 49.6422C93.8278 50.0889 93.9514 50.4084 94.0509 50.5974C94.1504 50.7864 94.2809 50.9375 94.4422 51.0544C94.6035 51.1712 94.8266 51.2571 95.1149 51.3086V51.8996H89.5822V51.3086C89.9289 51.2743 90.1863 51.1849 90.3545 51.0475C90.5226 50.9101 90.605 50.7176 90.605 50.4668C90.605 50.2813 90.581 50.0751 90.5364 49.8484C90.4883 49.6216 90.4128 49.333 90.3064 48.9894L90.0284 48.1064ZM86.1295 47.0584H89.7367L88.1338 42.0145L86.1295 47.0584Z" fill="white"/>
<path d="M106.03 39.946V42.5436H104.667C104.506 41.8702 104.252 41.3719 103.905 41.0524C103.558 40.7329 103.102 40.5748 102.543 40.5748C101.485 40.5748 100.689 41.0284 100.147 41.932C99.6046 42.8356 99.3335 44.1791 99.3335 45.9589C99.3335 47.6115 99.5806 48.8657 100.075 49.7178C100.569 50.5699 101.293 50.9925 102.251 50.9925C102.738 50.9925 103.136 50.9203 103.442 50.7726C103.747 50.6248 103.994 50.4084 104.18 50.1129C104.365 49.8174 104.523 49.4085 104.657 48.876H106.03V51.5903C105.295 51.7449 104.622 51.8583 104.015 51.9305C103.407 52.0026 102.776 52.037 102.12 52.037C100.73 52.037 99.5978 51.8137 98.7191 51.3636C97.8405 50.9169 97.1918 50.24 96.7731 49.3364C96.3544 48.4327 96.1484 47.2851 96.1484 45.9005C96.1484 44.6051 96.3921 43.4782 96.8864 42.5195C97.3806 41.5609 98.1013 40.8222 99.0555 40.3034C100.01 39.7846 101.153 39.5234 102.484 39.5234C103.16 39.5234 103.771 39.5578 104.317 39.6231C104.863 39.6918 105.432 39.7983 106.03 39.946Z" fill="white"/>
<path d="M119.84 49.6493C119.84 50.1097 119.861 50.4224 119.906 50.5941C119.95 50.7659 120.036 50.9068 120.17 51.0202C120.304 51.1336 120.547 51.2298 120.901 51.3054V51.8963H115.674V51.3054C116.062 51.216 116.312 51.1267 116.425 51.0374C116.539 50.948 116.618 50.8209 116.666 50.656C116.714 50.4911 116.734 50.1544 116.734 49.6493V46.0588H112.204V49.6493C112.204 49.8589 112.211 50.0513 112.224 50.2299C112.238 50.4086 112.266 50.5563 112.303 50.6697C112.341 50.7831 112.403 50.8793 112.478 50.9549C112.554 51.0339 112.66 51.0992 112.794 51.1576C112.928 51.216 113.093 51.2641 113.285 51.3054V51.8963H108.023V51.3054C108.271 51.247 108.466 51.1817 108.61 51.113C108.754 51.0442 108.861 50.948 108.93 50.8278C108.998 50.7075 109.046 50.5495 109.063 50.3605C109.084 50.1715 109.094 49.9345 109.094 49.6493V41.9288C109.094 41.6471 109.087 41.4134 109.07 41.221C109.053 41.0286 109.008 40.874 108.94 40.7537C108.871 40.6335 108.761 40.5373 108.621 40.4617C108.476 40.3861 108.277 40.3208 108.023 40.2589V39.668H113.285V40.2589C112.931 40.3483 112.688 40.4479 112.557 40.5544C112.427 40.661 112.334 40.8053 112.283 40.9805C112.228 41.1557 112.204 41.4753 112.204 41.9357V44.9283H116.734V41.9357C116.734 41.4821 116.714 41.166 116.669 40.9908C116.624 40.8156 116.539 40.6713 116.408 40.5613C116.278 40.4514 116.034 40.3517 115.67 40.2624V39.6714H120.901V40.2624C120.606 40.3345 120.393 40.4101 120.259 40.4926C120.125 40.5716 120.029 40.6747 119.974 40.8018C119.916 40.9255 119.882 41.0664 119.864 41.2244C119.847 41.379 119.84 41.6196 119.84 41.9425V49.6493Z" fill="white"/>
<path d="M128.445 39.6714V40.2624C127.93 40.3345 127.597 40.4754 127.446 40.685C127.295 40.8946 127.219 41.3103 127.219 41.9288V44.8665C128.108 44.7909 128.846 44.7497 129.433 44.7497C131.108 44.7497 132.347 45.0417 133.147 45.6224C133.946 46.2031 134.345 47.1101 134.345 48.3402C134.345 50.711 132.601 51.8963 129.114 51.8963H123.042V51.3054C123.502 51.2057 123.798 51.0546 123.925 50.8518C124.052 50.6491 124.113 50.2506 124.113 49.6458V41.9254C124.113 41.3103 124.055 40.9083 123.931 40.7159C123.811 40.5235 123.513 40.3723 123.039 40.2589V39.668H128.445V39.6714ZM127.223 45.9488V50.8209C128.846 50.9274 129.924 50.7659 130.456 50.3365C130.988 49.907 131.252 49.2541 131.252 48.3745C131.252 47.5912 131.046 46.983 130.634 46.5466C130.223 46.1103 129.478 45.8938 128.393 45.8938C128.04 45.8938 127.648 45.9144 127.223 45.9488ZM139.328 41.9288V49.6493C139.328 50.2471 139.393 50.6457 139.517 50.8484C139.644 51.0511 139.942 51.2023 140.409 51.3054V51.8963H135.148V51.3054C135.615 51.2057 135.91 51.0546 136.033 50.8518C136.157 50.6526 136.219 50.2506 136.219 49.6458V41.9151C136.219 41.3069 136.157 40.9049 136.037 40.7159C135.917 40.5235 135.618 40.3723 135.144 40.2589V39.668H140.406V40.2589C139.932 40.3792 139.634 40.5338 139.51 40.7297C139.39 40.9255 139.328 41.3241 139.328 41.9288Z" fill="white"/>
<path d="M152.576 39.6714V42.5198H151.203C150.984 41.9529 150.795 41.568 150.644 41.3687C150.49 41.1695 150.308 41.0114 150.091 40.8946C149.879 40.7778 149.515 40.7194 149 40.7194H146.814V45.0177H148.135C148.43 45.0177 148.66 44.9799 148.825 44.9043C148.993 44.8287 149.13 44.705 149.24 44.5332C149.35 44.3614 149.456 44.09 149.556 43.7258H150.689V47.361H149.556C149.463 47.0139 149.36 46.7494 149.244 46.5673C149.127 46.3852 148.993 46.2546 148.839 46.179C148.681 46.1 148.447 46.0622 148.132 46.0622H146.81V50.845H148.986C149.22 50.845 149.419 50.8312 149.577 50.8037C149.738 50.7762 149.882 50.7316 150.009 50.6663C150.136 50.601 150.256 50.5117 150.376 50.3983C150.493 50.2849 150.596 50.1612 150.689 50.0307C150.778 49.9001 150.874 49.7249 150.973 49.5118C151.073 49.2988 151.183 48.9999 151.303 48.6254H152.676L152.487 51.8963H142.637V51.3054C142.884 51.247 143.079 51.1817 143.224 51.113C143.368 51.0442 143.474 50.948 143.543 50.8278C143.611 50.7075 143.66 50.5495 143.677 50.3605C143.697 50.1715 143.708 49.9345 143.708 49.6493V41.9288C143.708 41.6471 143.701 41.4134 143.684 41.221C143.666 41.0286 143.622 40.874 143.553 40.7537C143.484 40.6335 143.375 40.5373 143.234 40.4617C143.09 40.3861 142.891 40.3208 142.637 40.2589V39.668H152.576V39.6714Z" fill="white"/>
<path d="M35.7015 70.8417V70.4053L34.6169 68.0724C34.3595 67.5158 34.0747 67.1619 33.7692 67.0141C33.4637 66.8664 33.0896 66.7908 32.6434 66.7908H31.9261V68.6152C31.9261 69.3746 31.9982 69.835 32.1458 69.9965C32.2934 70.158 32.5817 70.292 33.0107 70.4053V70.8417H29.177V70.4053C29.6266 70.292 29.9149 70.1305 30.035 69.9209C30.1551 69.7113 30.2135 69.2749 30.2135 68.6152V64.2791C30.2135 63.7569 30.1414 63.3927 30.0007 63.19C29.8565 62.9838 29.5682 62.8429 29.1289 62.7673V62.331H33.0141V62.7673C32.6091 62.8429 32.3277 62.9804 32.1664 63.1762C32.0085 63.3721 31.9261 63.7397 31.9261 64.2791V66.1208H32.6434C33.0759 66.1208 33.4225 66.004 33.6834 65.7703C33.9442 65.5367 34.2428 65.0453 34.5758 64.2963C34.9155 63.5473 35.2691 63.0044 35.6397 62.6677C36.0104 62.331 36.6282 62.1592 37.4931 62.1592C37.778 62.1592 38.104 62.2004 38.4678 62.2829V64.018H37.572C37.4862 63.6435 37.2631 63.458 36.9062 63.458C36.6282 63.458 36.4017 63.5267 36.2301 63.6641C36.0584 63.8015 35.8491 64.1142 35.602 64.609C35.1386 65.547 34.6787 66.1105 34.2291 66.2994V66.3544C35.1867 66.5675 35.8937 67.0725 36.3502 67.8662L37.1087 69.1822C37.3489 69.5979 37.5755 69.89 37.7917 70.0583C38.0079 70.2267 38.3168 70.3435 38.7218 70.4019V70.8383H35.7015V70.8417Z" fill="white"/>
<path d="M44.7134 70.9859C43.3337 70.9859 42.28 70.6217 41.5524 69.8967C40.8247 69.1683 40.4609 68.0929 40.4609 66.6704C40.4609 65.6912 40.6531 64.8631 41.0341 64.1862C41.4151 63.5094 41.9402 63.0077 42.6026 62.6779C43.265 62.348 44.0235 62.1831 44.8747 62.1831C46.2956 62.1831 47.3699 62.5542 48.1009 63.2895C48.832 64.0282 49.1958 65.0899 49.1958 66.4711C49.1958 67.4572 49.0139 68.2853 48.6466 68.9621C48.2794 69.639 47.7646 70.1441 47.0919 70.4808C46.4192 70.8175 45.6298 70.9859 44.7134 70.9859ZM42.3418 66.4814C42.3418 67.7046 42.558 68.6426 42.9939 69.2989C43.4298 69.9551 44.051 70.2815 44.861 70.2815C45.3071 70.2815 45.6847 70.1853 45.997 69.9929C46.3093 69.8005 46.5633 69.5394 46.759 69.213C46.9546 68.8866 47.0953 68.5086 47.1811 68.0791C47.2669 67.6496 47.3115 67.1995 47.3115 66.7322C47.3115 65.8595 47.2051 65.1346 46.9889 64.5608C46.7727 63.987 46.4809 63.5609 46.1068 63.2929C45.7362 63.0215 45.3106 62.8875 44.8335 62.8875C44.0304 62.8875 43.416 63.2001 42.987 63.822C42.558 64.4439 42.3418 65.3304 42.3418 66.4814Z" fill="white"/>
<path d="M57.8277 70.8418V70.4054C58.2327 70.3092 58.5107 70.1752 58.6583 69.9965C58.8093 69.8179 58.8813 69.4434 58.8813 68.8661V66.7908H54.5911V68.8661C54.5911 69.4056 54.6632 69.7732 54.8108 69.9656C54.9584 70.158 55.2467 70.3058 55.6757 70.4054V70.8418H51.8008V70.4054C52.2332 70.2989 52.5181 70.1477 52.6623 69.9553C52.8064 69.7629 52.8751 69.3987 52.8751 68.8661V64.2929C52.8751 63.7535 52.7995 63.3824 52.652 63.1831C52.5009 62.9839 52.2195 62.8464 51.8008 62.7708V62.3345H55.6551V62.7708C55.2501 62.8464 54.9721 62.9839 54.8177 63.1763C54.6666 63.3687 54.5877 63.7398 54.5877 64.2929V66.0006H58.8779V64.2929C58.8779 63.7054 58.7955 63.324 58.6342 63.1454C58.4729 62.9667 58.2018 62.843 57.8242 62.7708V62.3345H61.6683V62.7708C61.2427 62.8602 60.9612 63.0045 60.8171 63.2038C60.6729 63.403 60.6043 63.7672 60.6043 64.2929V68.8661C60.6043 69.4056 60.6764 69.7732 60.8239 69.9656C60.9715 70.158 61.253 70.3058 61.6717 70.4054V70.8418H57.8277Z" fill="white"/>
<path d="M71.651 62.5404V64.3992H70.3879C70.2746 64.0144 70.1339 63.7086 69.9692 63.4853C69.8044 63.262 69.6122 63.1073 69.3926 63.018C69.1729 62.9287 68.9018 62.884 68.5757 62.884C68.1124 62.884 67.7005 63.018 67.3401 63.286C66.9798 63.554 66.6983 63.9594 66.489 64.5058C66.2796 65.0521 66.1766 65.7186 66.1766 66.5089C66.1766 67.014 66.2178 67.4744 66.2968 67.8936C66.3757 68.3127 66.513 68.6701 66.7052 68.9656C66.8974 69.261 67.1548 69.4947 67.4706 69.6596C67.7898 69.8245 68.1845 69.9104 68.6547 69.9104C69.1111 69.9104 69.5402 69.8314 69.9349 69.6699C70.3296 69.5084 70.7414 69.2267 71.1636 68.8247L71.7299 69.4122C71.3901 69.7455 71.0915 69.9998 70.8341 70.1819C70.5767 70.364 70.2987 70.5152 70.0035 70.6354C69.7083 70.7557 69.4166 70.845 69.1283 70.9034C68.84 70.9618 68.5242 70.9893 68.1879 70.9893C66.9317 70.9893 65.9742 70.6182 65.3117 69.8726C64.6493 69.127 64.3164 68.0516 64.3164 66.6463C64.3164 65.7667 64.5018 64.9902 64.8724 64.3099C65.2431 63.6296 65.7648 63.1073 66.4375 62.7397C67.1068 62.3721 67.8824 62.1865 68.7576 62.1865C69.3033 62.1865 69.8044 62.214 70.2678 62.2724C70.7243 62.324 71.1876 62.4133 71.651 62.5404Z" fill="white"/>
<path d="M81.6521 64.8014C81.453 64.1967 81.2265 63.7535 80.9759 63.4752C80.722 63.1969 80.3273 63.056 79.7918 63.056H78.8068V68.6291C78.8068 69.33 78.8926 69.7801 79.0608 69.9828C79.229 70.1855 79.5722 70.3264 80.0904 70.4088V70.8452H75.8174V70.4088C76.3631 70.3195 76.7132 70.1649 76.8676 69.9416C77.0255 69.7182 77.101 69.2819 77.101 68.6291V63.056H76.1263C75.5668 63.056 75.1653 63.2106 74.9113 63.5233C74.6573 63.836 74.4514 64.262 74.2832 64.8014H73.3359V62.3345H82.5856V64.8014H81.6521Z" fill="white"/>
<path d="M87.3481 70.577V72.4564C87.3481 72.8412 87.3618 73.1299 87.3927 73.3188C87.4236 73.5078 87.4751 73.659 87.5506 73.7689C87.6261 73.8789 87.7359 73.9682 87.8801 74.0404C88.0242 74.1125 88.2542 74.1778 88.5734 74.2362V74.6726H84.5097V74.2362C84.7499 74.1778 84.9421 74.116 85.0932 74.0541C85.2442 73.9923 85.3574 73.8995 85.4364 73.7792C85.5153 73.659 85.5702 73.4941 85.5943 73.2845C85.6183 73.0749 85.6354 72.8 85.6354 72.4564V64.8184C85.6354 64.3924 85.6286 64.0866 85.6148 63.9045C85.6011 63.7224 85.5737 63.5746 85.5359 63.4544C85.4947 63.3375 85.4364 63.2379 85.3609 63.1623C85.2854 63.0867 85.1824 63.018 85.052 62.9664C84.9215 62.9149 84.7088 62.8599 84.4102 62.805V62.3342L86.7509 62.2552H87.3584L87.228 63.7052L87.3756 63.7395C87.7874 63.365 88.1135 63.0936 88.3503 62.9252C88.5871 62.7569 88.8377 62.616 89.0916 62.5026C89.3456 62.3892 89.5927 62.3102 89.8295 62.2621C90.0664 62.214 90.3169 62.1899 90.5812 62.1899C91.6761 62.1899 92.5169 62.5576 93.1038 63.2894C93.6907 64.0213 93.9859 65.0933 93.9859 66.5089C93.9859 67.4881 93.8212 68.3127 93.4882 68.9793C93.1553 69.6458 92.6714 70.1475 92.0399 70.4842C91.4049 70.8209 90.6498 70.9858 89.7746 70.9858C89.2838 70.9858 88.8376 70.9481 88.4395 70.8759C88.0482 70.8003 87.681 70.7007 87.3481 70.577ZM87.3481 67.6393C87.3481 68.2096 87.3893 68.6494 87.4682 68.9552C87.5472 69.2645 87.6879 69.5153 87.8904 69.7077C88.0929 69.9001 88.3331 70.0444 88.6077 70.1406C88.8823 70.2368 89.2461 70.2849 89.6991 70.2849C90.5023 70.2849 91.1063 69.986 91.5113 69.3916C91.9163 68.7937 92.1188 67.9142 92.1188 66.7528C92.1188 64.4267 91.3603 63.2654 89.8398 63.2654C89.4692 63.2654 89.1465 63.3169 88.8788 63.42C88.6111 63.5231 88.3434 63.6914 88.0757 63.9216C87.8114 64.1518 87.6227 64.3786 87.5128 64.5951C87.403 64.8115 87.3481 65.0452 87.3481 65.2926V67.6393Z" fill="white"/>
<path d="M100.387 71.5736C100.023 72.3089 99.666 72.9068 99.3228 73.3637C98.9796 73.8207 98.5986 74.1643 98.1834 74.3945C97.7681 74.6247 97.2773 74.7415 96.7041 74.7415C96.3403 74.7415 95.9284 74.7037 95.4685 74.6247V72.8621H96.354C96.4329 73.106 96.5325 73.2744 96.6526 73.3706C96.7727 73.4668 96.9443 73.5149 97.1709 73.5149C97.3699 73.5149 97.5484 73.4805 97.7028 73.4118C97.8573 73.3431 98.022 73.2263 98.1902 73.0614C98.3584 72.8964 98.5575 72.6387 98.7874 72.2952C99.0174 71.9516 99.2748 71.5152 99.5596 70.9861L96.7727 64.2826C96.5943 63.8497 96.4501 63.5473 96.3403 63.3756C96.2304 63.2038 96.1137 63.0732 95.9868 62.9839C95.8598 62.8945 95.6676 62.8224 95.4102 62.7708V62.3345H99.4635V62.7708C99.1512 62.8361 98.9316 62.9014 98.8046 62.9632C98.6776 63.0251 98.5849 63.1041 98.5266 63.2038C98.4682 63.3034 98.4373 63.4271 98.4373 63.5817C98.4373 63.7432 98.4579 63.9081 98.5025 64.0799C98.5472 64.2517 98.6124 64.4544 98.705 64.6846L100.476 69.1444L102.467 64.8736C102.58 64.6365 102.666 64.4166 102.731 64.2208C102.793 64.0215 102.827 63.836 102.827 63.6642C102.827 63.4099 102.748 63.2175 102.594 63.0869C102.436 62.9564 102.168 62.8533 101.78 62.7743V62.3379H105.504V62.7743C105.247 62.8224 105.048 62.8945 104.907 62.9907C104.766 63.0904 104.629 63.2416 104.488 63.4546C104.348 63.6676 104.183 63.9597 103.991 64.341L100.387 71.5736Z" fill="white"/>
<path d="M113.623 70.8417V70.4053L112.539 68.0724C112.281 67.5158 111.997 67.1619 111.691 67.0141C111.386 66.8664 111.011 66.7908 110.565 66.7908H109.848V68.6152C109.848 69.3746 109.92 69.835 110.068 69.9965C110.215 70.158 110.504 70.292 110.933 70.4053V70.8417H107.099V70.4053C107.548 70.292 107.837 70.1305 107.957 69.9209C108.077 69.7113 108.135 69.2749 108.135 68.6152V64.2791C108.135 63.7569 108.063 63.3927 107.923 63.19C107.778 62.9838 107.49 62.8429 107.051 62.7673V62.331H110.936V62.7673C110.531 62.8429 110.25 62.9804 110.088 63.1762C109.93 63.3721 109.848 63.7397 109.848 64.2791V66.1208H110.565C110.998 66.1208 111.344 66.004 111.605 65.7703C111.866 65.5367 112.165 65.0453 112.498 64.2963C112.837 63.5473 113.191 63.0044 113.562 62.6677C113.932 62.331 114.55 62.1592 115.415 62.1592C115.7 62.1592 116.026 62.2004 116.39 62.2829V64.018H115.494C115.408 63.6435 115.185 63.458 114.828 63.458C114.55 63.458 114.324 63.5267 114.152 63.6641C113.98 63.8015 113.771 64.1142 113.524 64.609C113.061 65.547 112.601 66.1105 112.151 66.2994V66.3544C113.109 66.5675 113.816 67.0725 114.272 67.8662L115.031 69.1822C115.271 69.5979 115.497 69.89 115.714 70.0583C115.93 70.2267 116.239 70.3435 116.644 70.4019V70.8383H113.623V70.8417Z" fill="white"/>
<path d="M127.485 73.7176C127.266 72.5666 127.073 71.8485 126.909 71.5633C126.744 71.2781 126.562 71.0857 126.359 70.9895C126.16 70.8899 125.814 70.8418 125.323 70.8418H118.555V70.4054C119.011 70.292 119.306 70.1374 119.437 69.9381C119.567 69.7388 119.632 69.3815 119.632 68.8661V64.2929C119.632 63.7398 119.553 63.3687 119.392 63.1763C119.234 62.9839 118.953 62.8499 118.555 62.7708V62.3345H122.409V62.7708C122.004 62.8464 121.726 62.9839 121.572 63.1763C121.417 63.3687 121.342 63.7398 121.342 64.2929V70.079H125.186V64.2929C125.186 63.7363 125.114 63.3618 124.966 63.1763C124.818 62.9907 124.54 62.8533 124.129 62.7708V62.3345H127.973V62.7708C127.54 62.8533 127.255 62.9976 127.115 63.1969C126.974 63.3962 126.905 63.7638 126.905 64.2929V70.079H128.419V73.7176H127.485Z" fill="white"/>
<path d="M136.807 70.8418V70.4054C137.198 70.3092 137.469 70.1752 137.617 69.9965C137.764 69.8179 137.84 69.4434 137.84 68.8661V65.1107L133.45 69.1616C133.457 69.5636 133.529 69.8488 133.67 70.0103C133.81 70.1718 134.081 70.3058 134.486 70.4054V70.8418H130.684V70.4054C131.116 70.2989 131.401 70.1477 131.545 69.9553C131.689 69.7629 131.758 69.3987 131.758 68.8661V64.2929C131.758 63.7535 131.682 63.3824 131.535 63.1831C131.387 62.9839 131.102 62.8464 130.684 62.7708V62.3345H134.486V62.7708C134.081 62.8464 133.803 62.9839 133.656 63.1797C133.508 63.3755 133.433 63.7466 133.433 64.2929V67.9865L137.805 63.9287C137.798 63.2519 137.452 62.867 136.769 62.7708V62.3345H140.572V62.7708C140.167 62.8464 139.889 62.9839 139.734 63.1763C139.58 63.3687 139.504 63.7398 139.504 64.2929V68.8661C139.504 69.4056 139.576 69.7732 139.724 69.9656C139.871 70.158 140.153 70.3058 140.572 70.4054V70.8418H136.807Z" fill="white"/>
<path d="M149.35 70.8418V70.4054C149.741 70.3092 150.012 70.1752 150.16 69.9965C150.307 69.8179 150.383 69.4434 150.383 68.8661V65.1107L145.993 69.1616C146 69.5636 146.072 69.8488 146.213 70.0103C146.353 70.1718 146.624 70.3058 147.029 70.4054V70.8418H143.227V70.4054C143.659 70.2989 143.944 70.1477 144.088 69.9553C144.232 69.7629 144.301 69.3987 144.301 68.8661V64.2929C144.301 63.7535 144.225 63.3824 144.078 63.1831C143.93 62.9839 143.645 62.8464 143.227 62.7708V62.3345H147.029V62.7708C146.624 62.8464 146.346 62.9839 146.199 63.1797C146.051 63.3755 145.976 63.7466 145.976 64.2929V67.9865L150.348 63.9287C150.341 63.2519 149.995 62.867 149.312 62.7708V62.3345H153.115V62.7708C152.71 62.8464 152.432 62.9839 152.277 63.1763C152.123 63.3687 152.047 63.7398 152.047 64.2929V68.8661C152.047 69.4056 152.119 69.7732 152.267 69.9656C152.414 70.158 152.696 70.3058 153.115 70.4054V70.8418H149.35Z" fill="white"/>
<path d="M1.19922 20.6291L7.88165 28.1091L17.4437 17.8289L24.0918 28.1091L33.7259 14.8465L41.7365 28.1091L52.0433 11.4931L60.7782 28.353L71.2566 7.99531L81.0383 28.1091L91.2524 4.49756L104.099 27.8617L111.434 8.34577L121.215 28.353L132.397 12.1905L139.385 28.1091L148.47 14.9908L155.454 28.1091L161.746 16.4167L169.43 28.1091L181 20.5845" stroke="white" stroke-width="0.599"/>
<path d="M1 18.3479L90.9982 1L181 18.5884" stroke="#646363" stroke-width="0.599"/>
</svg>
